<mxfile host="app.diagrams.net" agent="Mozilla/5.0 (Windows NT 10.0; Win64; x64) AppleWebKit/537.36 (KHTML, like Gecko) Chrome/133.0.0.0 Safari/537.36" version="26.0.16">
  <diagram name="第 1 页" id="Zxnjr9PZMWphTIG9z5aj">
    <mxGraphModel dx="1562" dy="810" grid="1" gridSize="10" guides="1" tooltips="1" connect="1" arrows="1" fold="1" page="1" pageScale="1" pageWidth="827" pageHeight="1169" math="0" shadow="0">
      <root>
        <mxCell id="0" />
        <mxCell id="1" parent="0" />
        <mxCell id="G4OuvjOxquOvrRmDwCBh-3" value="" style="edgeStyle=orthogonalEdgeStyle;rounded=0;orthogonalLoop=1;jettySize=auto;html=1;fontStyle=1" edge="1" parent="1" source="G4OuvjOxquOvrRmDwCBh-1" target="G4OuvjOxquOvrRmDwCBh-2">
          <mxGeometry relative="1" as="geometry" />
        </mxCell>
        <mxCell id="G4OuvjOxquOvrRmDwCBh-1" value="进程" style="rounded=0;whiteSpace=wrap;html=1;fontStyle=1" vertex="1" parent="1">
          <mxGeometry x="160" y="280" width="120" height="60" as="geometry" />
        </mxCell>
        <mxCell id="G4OuvjOxquOvrRmDwCBh-2" value="文件" style="rounded=0;whiteSpace=wrap;html=1;fontStyle=1" vertex="1" parent="1">
          <mxGeometry x="360" y="280" width="120" height="60" as="geometry" />
        </mxCell>
        <mxCell id="G4OuvjOxquOvrRmDwCBh-6" style="edgeStyle=orthogonalEdgeStyle;rounded=0;orthogonalLoop=1;jettySize=auto;html=1;exitX=0.5;exitY=0;exitDx=0;exitDy=0;entryX=0.5;entryY=1;entryDx=0;entryDy=0;fontStyle=1;dashed=1;" edge="1" parent="1" source="G4OuvjOxquOvrRmDwCBh-4" target="G4OuvjOxquOvrRmDwCBh-5">
          <mxGeometry relative="1" as="geometry" />
        </mxCell>
        <mxCell id="G4OuvjOxquOvrRmDwCBh-4" value="访问" style="text;html=1;align=center;verticalAlign=middle;whiteSpace=wrap;rounded=0;fontStyle=1" vertex="1" parent="1">
          <mxGeometry x="290" y="280" width="60" height="30" as="geometry" />
        </mxCell>
        <mxCell id="G4OuvjOxquOvrRmDwCBh-5" value="操作系统" style="rounded=0;whiteSpace=wrap;html=1;fontStyle=1" vertex="1" parent="1">
          <mxGeometry x="260" y="110" width="120" height="60" as="geometry" />
        </mxCell>
        <mxCell id="G4OuvjOxquOvrRmDwCBh-7" value="访问控制列表" style="shape=cylinder3;whiteSpace=wrap;html=1;boundedLbl=1;backgroundOutline=1;size=15;fontStyle=1" vertex="1" parent="1">
          <mxGeometry x="480" y="100" width="60" height="80" as="geometry" />
        </mxCell>
        <mxCell id="G4OuvjOxquOvrRmDwCBh-8" style="edgeStyle=orthogonalEdgeStyle;rounded=0;orthogonalLoop=1;jettySize=auto;html=1;exitX=1;exitY=0.5;exitDx=0;exitDy=0;entryX=0;entryY=0.5;entryDx=0;entryDy=0;entryPerimeter=0;fontStyle=1;dashed=1;" edge="1" parent="1" source="G4OuvjOxquOvrRmDwCBh-5" target="G4OuvjOxquOvrRmDwCBh-7">
          <mxGeometry relative="1" as="geometry" />
        </mxCell>
        <mxCell id="G4OuvjOxquOvrRmDwCBh-9" value="查询" style="text;html=1;align=center;verticalAlign=middle;whiteSpace=wrap;rounded=0;fontStyle=1" vertex="1" parent="1">
          <mxGeometry x="400" y="110" width="60" height="30" as="geometry" />
        </mxCell>
        <mxCell id="G4OuvjOxquOvrRmDwCBh-13" value="权限鉴定" style="text;html=1;align=center;verticalAlign=middle;whiteSpace=wrap;rounded=0;fontStyle=1" vertex="1" parent="1">
          <mxGeometry x="260" y="210" width="60" height="30" as="geometry" />
        </mxCell>
      </root>
    </mxGraphModel>
  </diagram>
</mxfile>
